<?xml version="1.0" encoding="utf-8"?>
<svg viewBox="103.5885 57.3164 349.5339 480.6092" xmlns="http://www.w3.org/2000/svg">
  <path class="st0" d="M58,88H6c-3.3,0-6-2.7-6-6V6c0-3.3,2.7-6,6-6h36l22,22v60C64,85.3,61.3,88,58,88z" style="fill: rgb(52, 57, 63);" transform="matrix(5.461467742919923, 0, 0, 5.461467742919923, 103.58845520019537, 57.316432952880916)"/>
  <path class="st1" d="M42,0l22,22H42V0z" style="fill: rgb(24, 24, 24);" transform="matrix(5.461467742919923, 0, 0, 5.461467742919923, 103.58845520019537, 57.316432952880916)"/>
  <path d="M 244.706 342.097 C 238.689 342.097 233.806 346.98 233.806 352.997 C 233.806 359.025 238.689 363.897 244.706 363.897 C 250.722 363.897 255.605 359.025 255.605 352.997 C 255.605 346.98 250.722 342.097 244.706 342.097 Z" style="fill: rgba(255, 255, 255, 0.816);" transform="matrix(1, 0, 0, 1, -2.795228958129826, -4.192842960357666)"/>
  <path d="M 299.205 352.997 C 299.205 346.98 304.088 342.097 310.104 342.097 C 316.121 342.097 321.004 346.98 321.004 352.997 C 321.004 359.025 316.121 363.897 310.104 363.897 C 304.088 363.897 299.205 359.025 299.205 352.997 Z" style="fill: rgba(255, 255, 255, 0.816);" transform="matrix(1, 0, 0, 1, -2.795228958129826, -4.192842960357666)"/>
  <path fill-rule="evenodd" clip-rule="evenodd" d="M 277.405 189.501 C 265.361 189.501 255.605 199.267 255.605 211.3 C 255.605 219.377 259.987 226.418 266.505 230.189 L 266.505 254.899 L 212.006 254.899 C 193.945 254.899 179.307 269.538 179.307 287.598 L 179.307 396.596 C 179.307 414.657 193.945 429.295 212.006 429.295 L 342.804 429.295 C 360.865 429.295 375.503 414.657 375.503 396.596 L 375.503 287.598 C 375.503 269.538 360.865 254.899 342.804 254.899 L 288.305 254.899 L 288.305 230.189 C 294.823 226.418 299.205 219.377 299.205 211.3 C 299.205 199.267 289.438 189.501 277.405 189.501 Z M 201.107 287.598 C 201.107 281.582 205.99 276.699 212.006 276.699 L 227.07 276.699 L 242.842 308.254 C 246.537 315.633 254.079 320.298 262.342 320.298 L 292.468 320.298 C 300.72 320.298 308.273 315.633 311.968 308.254 L 327.74 276.699 L 342.804 276.699 C 348.82 276.699 353.703 281.582 353.703 287.598 L 353.703 396.596 C 353.703 402.624 348.82 407.496 342.804 407.496 L 212.006 407.496 C 205.99 407.496 201.107 402.624 201.107 396.596 L 201.107 287.598 Z M 292.468 298.498 L 303.368 276.699 L 251.442 276.699 L 262.342 298.498 L 292.468 298.498 Z" style="fill: rgba(255, 255, 255, 0.816);" transform="matrix(1, 0, 0, 1, -2.795228958129826, -4.192842960357666)"/>
  <path d="M 157.508 331.198 C 151.491 331.198 146.608 336.081 146.608 342.097 L 146.608 363.897 C 146.608 369.924 151.491 374.797 157.508 374.797 C 163.524 374.797 168.407 369.924 168.407 363.897 L 168.407 342.097 C 168.407 336.081 163.524 331.198 157.508 331.198 Z" style="fill: rgba(255, 255, 255, 0.816);" transform="matrix(1, 0, 0, 1, -2.795228958129826, -4.192842960357666)"/>
  <path d="M 386.403 342.097 C 386.403 336.081 391.286 331.198 397.302 331.198 C 403.319 331.198 408.202 336.081 408.202 342.097 L 408.202 363.897 C 408.202 369.924 403.319 374.797 397.302 374.797 C 391.286 374.797 386.403 369.924 386.403 363.897 L 386.403 342.097 Z" style="fill: rgba(255, 255, 255, 0.816);" transform="matrix(1, 0, 0, 1, -2.795228958129826, -4.192842960357666)"/>
</svg>